<svg xmlns="http://www.w3.org/2000/svg" xmlns:xlink="http://www.w3.org/1999/xlink">

    <symbol  viewBox="0 0 45 22" id="logo">
        <path d="M43.1505 18.7038C41.5675 18.6985 40.0162 18.3198 38.6635 17.6085C37.3108 16.8972 36.208 15.8803 35.4738 14.6673C35.0849 15.738 34.526 16.7568 33.8133 17.6947C34.9323 18.9069 36.3521 19.886 37.9677 20.5597C39.5832 21.2334 41.3531 21.5843 43.1466 21.5865C43.5767 21.5686 43.9822 21.4082 44.2793 21.1386C44.5763 20.869 44.742 20.5109 44.742 20.1384C44.742 19.766 44.5763 19.4079 44.2793 19.1383C43.9822 18.8687 43.5767 18.7083 43.1466 18.6903L43.1505 18.7038ZM34.9371 8.57213C35.084 8.20959 35.2634 7.85756 35.4738 7.51927C36.2077 6.30596 37.3104 5.28885 38.6631 4.57755C40.0159 3.86625 41.5674 3.48772 43.1505 3.48275C43.5805 3.46481 43.9861 3.30442 44.2832 3.03481C44.5802 2.7652 44.7459 2.40707 44.7459 2.03465C44.7459 1.66223 44.5802 1.30409 44.2832 1.03448C43.9861 0.764874 43.5805 0.604478 43.1505 0.586544C41.3566 0.588723 39.5863 0.939962 37.9707 1.61424C36.355 2.28852 34.9355 3.26857 33.8171 4.48179C33.6305 4.68025 33.4555 4.8888 33.2844 5.09736C33.1133 5.30591 32.9421 5.54474 32.7866 5.77011C31.6978 7.38872 31.1273 9.22904 31.1338 11.1017C31.132 12.3505 30.7783 13.5802 30.1033 14.6841C29.3692 15.8962 28.2656 16.9115 26.912 17.6199C25.5585 18.3283 24.0067 18.7028 22.4246 18.7028C20.8426 18.7028 19.2908 18.3283 17.9372 17.6199C16.5837 16.9115 15.4801 15.8962 14.746 14.6841C14.3587 15.7554 13.7998 16.7744 13.0855 17.7115C14.2042 18.9236 15.6241 19.9022 17.2398 20.5748C18.8556 21.2474 20.6257 21.5966 22.4188 21.5966C24.2119 21.5966 25.982 21.2474 27.5978 20.5748C29.2135 19.9022 30.6334 18.9236 31.7521 17.7115C31.9388 17.513 32.1138 17.3045 32.281 17.0926C32.4483 16.8806 32.6233 16.6485 32.7788 16.4198C33.8686 14.8086 34.4418 12.9751 34.4394 11.1084C34.4385 10.2472 34.6055 9.39204 34.9333 8.57886L34.9371 8.57213ZM1.68324 3.4962C3.26389 3.50123 4.81314 3.87834 6.16485 4.58708C7.51655 5.29581 8.61971 6.30945 9.35602 7.51927C9.74253 6.44773 10.3015 5.42859 11.0166 4.49188C9.89787 3.27928 8.47814 2.29987 6.86253 1.62618C5.24691 0.952493 3.4768 0.601775 1.68324 0.599999C1.25318 0.617933 0.847595 0.778329 0.550564 1.04794C0.253533 1.31754 0.0878427 1.67568 0.0878427 2.0481C0.0878427 2.42052 0.253533 2.77866 0.550564 3.04827C0.847595 3.31787 1.25318 3.47827 1.68324 3.4962ZM14.2055 8.57213C14.3526 8.21024 14.5307 7.85831 14.7382 7.51927C15.4714 6.30615 16.5747 5.28988 17.9283 4.58075C19.282 3.87162 20.8343 3.49671 22.4169 3.49671C23.9994 3.49671 25.5518 3.87162 26.9054 4.58075C28.2591 5.28988 29.3623 6.30615 30.0955 7.51927C30.4803 6.44717 31.0394 5.42784 31.756 4.49188C30.6382 3.27866 29.2185 2.29898 27.6027 1.62565C25.9868 0.952314 24.2163 0.602652 22.4227 0.602652C20.6291 0.602652 18.8586 0.952314 17.2427 1.62565C15.6269 2.29898 14.2072 3.27866 13.0894 4.49188C12.9027 4.69034 12.7277 4.89889 12.5566 5.10745C12.3855 5.316 12.2182 5.55483 12.0627 5.7802C10.973 7.39266 10.3998 9.22721 10.4021 11.095C10.4033 11.9554 10.2349 12.8096 9.90436 13.6211C9.75497 13.9877 9.5716 14.3431 9.35602 14.6841C8.62115 15.8967 7.51821 16.9132 6.16568 17.6244C4.81315 18.3355 3.26217 18.7145 1.67935 18.7206C1.24929 18.7385 0.843706 18.8989 0.546675 19.1686C0.249644 19.4382 0.0839539 19.7963 0.0839539 20.1687C0.0839539 20.5411 0.249644 20.8993 0.546675 21.1689C0.843706 21.4385 1.24929 21.5989 1.67935 21.6168C3.47281 21.6146 5.24274 21.2636 6.85827 20.59C8.4738 19.9163 9.8936 18.9372 11.0127 17.7249C11.1994 17.5265 11.3744 17.3179 11.5455 17.106C11.7166 16.8941 11.8838 16.662 12.0432 16.4333C13.1301 14.8211 13.7018 12.9881 13.6999 11.1219C13.6984 10.2603 13.8667 9.40489 14.1977 8.59231" fill="#0B8470"/>
    </symbol>

    <symbol   viewBox="0 0 621 579" id="vector">
        <path d="M604.698 199.916C573.755 90.4158 481.844 24.4308 341.73 3.58162C225.259 -13.774 86.4906 30.0203 24.6344 177.278C-38.5958 327.777 26.5236 471.513 144.511 532.188C233.303 577.855 393.883 607.759 504.142 535.961C631.776 452.9 636.098 299.885 604.698 199.916Z" fill="#dce9e2"/>
    </symbol>

    <symbol viewBox="0 0 18 18" id="search">
        <g>
            <path d="M8.11767 15.1766C12.0162 15.1766 15.1765 12.0162 15.1765 8.11769C15.1765 4.21919 12.0162 1.05884 8.11767 1.05884C4.21918 1.05884 1.05882 4.21919 1.05882 8.11769C1.05882 12.0162 4.21918 15.1766 8.11767 15.1766Z" stroke="#64726F" stroke-width="2" stroke-linecap="round" stroke-linejoin="round"/>
            <path d="M16.9417 16.9412L13.1035 13.103" stroke="#64726F" stroke-width="2" stroke-linecap="round" stroke-linejoin="round"/>
        </g>
        <defs>
            <clipPath id="clip">
                <rect width="18" height="18" fill="none"/>
            </clipPath>
        </defs>
    </symbol>


<symbol   viewBox="0 0 64 64" id="heart">
    <path d="M41.9664 5.10852L37.5199 11.4364" stroke="#0D8570" stroke-width="0.867511" stroke-linecap="round" stroke-linejoin="round"/>
    <path d="M31.1111 8.69754L29.8643 0.49585" stroke="#0D8570" stroke-width="0.867511" stroke-linecap="round" stroke-linejoin="round"/>
    <path d="M42.0668 16.9587L49.9857 15.6674" stroke="#0D8570" stroke-width="0.867511" stroke-linecap="round" stroke-linejoin="round"/>
    <path d="M63.471 47.0068C59.8694 45.7676 47.997 42.4462 40.5233 40.3146C37.8788 39.571 34.9688 39.2737 32.4033 40.2799C30.989 40.8351 29.7709 41.8142 28.5911 42.7858C27.6099 43.5863 26.8249 44.1589 25.8509 44.9669C25.0748 45.5741 24.1812 46.0006 23.2312 46.2174C22.2814 46.4343 21.2974 46.4364 20.3467 46.2236C19.3704 45.9981 17.1806 45.1206 16.1851 45.0116C16.014 44.9767 15.838 44.9778 15.6673 45.0148C15.4967 45.0519 15.3351 45.1241 15.1919 45.2273C14.9287 45.4602 14.8975 45.9708 15.2063 46.1394C14.3807 45.7874 10.0419 44.4291 9.18037 44.1837C7.17972 43.6236 6.37802 44.2433 6.177 44.8629C6.03819 45.2941 7.63441 46.0476 8.01013 46.2732C6.75613 45.7155 3.94181 44.8975 2.77635 44.6547C0.775693 44.2407 -0.674546 45.2767 0.325784 45.894C3.26933 47.7231 9.72123 51.7906 12.6504 53.647C9.11337 53.6297 6.09802 53.6916 3.50865 54.1825C1.72337 54.5294 1.12509 55.2878 0.924067 55.7687C0.905275 55.8195 0.897551 55.874 0.901444 55.9282C0.905337 55.9825 0.920752 56.0351 0.946589 56.0826C0.972424 56.1299 1.00804 56.1707 1.0509 56.2022C1.09375 56.2337 1.14278 56.2549 1.19449 56.2644C3.36506 56.6486 14.5147 58.6166 18.2264 59.0231C21.9382 59.4297 23.2903 59.4371 25.7624 58.9339C30.788 57.9077 35.938 54.2865 40.3605 50.7372C48.7987 55.8356 55.332 59.8188 62.54 63.9877C63.033 56.9659 63.0713 54.7426 63.471 47.0068Z" fill="#DCE9E2"/>
    <path d="M25.2864 45.9012C22.3333 48.6103 19.543 50.8238 16.585 53.5328C16.1255 53.9542 15.6277 54.5986 15.9293 55.1489C16.0567 55.3476 16.2459 55.4954 16.4653 55.5678C17.3101 55.8924 18.2506 55.5678 19.0667 55.1638C21.3784 54.036 23.4221 52.3579 25.7794 51.3343C28.6943 50.0678 32.15 49.753 34.3947 47.443" stroke="#70B3A7" stroke-width="0.867511" stroke-linecap="round" stroke-linejoin="round"/>
    <path d="M15.4812 46.4714C17.1755 47.2472 19.3676 48.3576 21.062 49.1334" stroke="#70B3A7" stroke-width="0.867511" stroke-linecap="round" stroke-linejoin="round"/>
    <path d="M8.13684 46.677C12.0879 48.6971 14.5049 49.8992 18.2574 51.4805" stroke="#70B3A7" stroke-width="0.867511" stroke-linecap="round" stroke-linejoin="round"/>
    <path d="M12.3109 53.937C13.4723 53.8577 14.6346 53.8329 15.7976 53.8626" stroke="#70B3A7" stroke-width="0.867511" stroke-linecap="round" stroke-linejoin="round"/>
    <path d="M16.4791 15.0676C12.205 13.9201 7.3015 16.8027 6.05229 21.1798C4.80307 25.5571 6.99279 30.311 9.8813 33.8207C12.7698 37.3305 17.7092 41.554 21.3971 44.3796C24.8216 41.2268 26.8487 39.7173 30.2876 36.2002C33.5422 32.8714 36.4163 28.8635 37.0888 24.1765C37.4718 21.5095 37.0889 18.55 35.2988 16.5894C33.2934 14.3835 29.8615 13.9795 27.1622 15.1692C24.7068 16.2549 22.9741 18.3097 22.4117 20.6742C21.9324 19.3137 21.1426 18.0933 20.1096 17.1171C19.0766 16.1409 17.8311 15.4378 16.4791 15.0676Z" fill="#70B3A7"/>
</symbol>

<symbol   viewBox="0 0 64 64" id="phone">
    <g>
    <path d="M61.6852 23.2807C58.5289 13.0664 49.1502 6.91115 34.8604 4.96631C22.9794 3.34735 8.82383 7.42995 2.51398 21.1664C-3.93602 35.2052 2.70377 48.6132 14.7424 54.2757C23.794 58.5356 40.1774 61.3147 51.4277 54.6276C64.4445 46.877 64.8854 32.606 61.6852 23.2807Z" fill="#DCE9E2"/>
    <path d="M39.8882 63.987L12.091 60.1077C11.779 60.0628 11.4996 59.9096 11.3137 59.6816C11.1277 59.4535 11.0503 59.169 11.0982 58.8903L19.3351 11.8855C19.3854 11.6068 19.557 11.3571 19.8123 11.1906C20.0676 11.0242 20.3862 10.9544 20.6987 10.9965L48.496 14.8758C48.8079 14.9207 49.0873 15.0738 49.2733 15.3018C49.4593 15.5299 49.5367 15.8144 49.4887 16.0932L41.2518 63.0901C41.2036 63.3703 41.0329 63.6219 40.7774 63.7899C40.5218 63.958 40.2021 64.0289 39.8882 63.987Z" fill="#70B3A7"/>
    <path d="M39.4781 55.4013L46.3056 16.473L21.8836 13.0583L15.0561 51.9867L39.4781 55.4013Z" fill="white"/>
    <path d="M26.4712 59.1015C27.4451 59.1015 28.2348 58.3965 28.2348 57.5268C28.2348 56.6572 27.4451 55.9521 26.4712 55.9521C25.4971 55.9521 24.7075 56.6572 24.7075 57.5268C24.7075 58.3965 25.4971 59.1015 26.4712 59.1015Z" fill="#00856F"/>
    <path d="M20.9381 37.2805C20.844 37.266 20.7476 37.2685 20.6547 37.2879C20.5618 37.3072 20.4742 37.3431 20.397 37.3933C20.32 37.4434 20.255 37.507 20.2058 37.5801C20.1568 37.6532 20.1247 37.7343 20.1113 37.8186C20.098 37.903 20.1038 37.9889 20.1284 38.0712C20.1531 38.1536 20.1958 38.2306 20.2545 38.2978C20.3131 38.3652 20.3862 38.4212 20.4695 38.4628C20.5528 38.5042 20.6446 38.5304 20.7396 38.5397C21.4962 38.6335 22.2669 38.574 22.9943 38.3655C23.7217 38.1569 24.3871 37.8048 24.9412 37.3352C24.7022 36.892 24.535 36.4206 24.4448 35.9352C24.0527 36.4224 23.5194 36.8052 22.902 37.0421C22.2848 37.2791 21.6068 37.3615 20.941 37.2805H20.9381ZM25.0902 33.3048C25.1713 33.6758 25.1841 34.0562 25.1281 34.431C25.0024 35.2364 25.1192 36.057 25.4667 36.8086C25.5135 36.9156 25.572 37.0276 25.6303 37.1293C25.6887 37.231 25.7471 37.3301 25.8084 37.4239C26.0061 37.7215 26.2402 37.9986 26.5062 38.2503C26.9655 38.6808 27.5153 39.0263 28.1241 39.267C28.733 39.5077 29.389 39.639 30.0548 39.6533C30.7204 39.6676 31.3828 39.5646 32.0038 39.3502C32.6249 39.1359 33.1927 38.8144 33.6746 38.4041C33.4374 37.9606 33.2722 37.4893 33.184 37.0041C32.7927 37.4929 32.2591 37.8766 31.6408 38.1137C31.0227 38.3509 30.3435 38.4324 29.6772 38.3494C29.0107 38.2664 28.3826 38.0221 27.8606 37.6429C27.3387 37.2638 26.943 36.7642 26.7165 36.1985C26.6536 36.0415 26.6048 35.8802 26.5705 35.7162C26.4878 35.3454 26.475 34.9647 26.5326 34.5901C26.655 33.7847 26.5381 32.9648 26.1938 32.2125C26.1442 32.1055 26.0887 31.9934 26.0303 31.8944C25.972 31.7953 25.9136 31.6962 25.8493 31.5972C25.4598 31.0111 24.9277 30.5108 24.2923 30.133C23.6571 29.7553 22.9348 29.51 22.1791 29.4151C21.9915 29.3919 21.8016 29.4361 21.6507 29.5381C21.4999 29.64 21.4006 29.7913 21.3746 29.9586C21.3486 30.126 21.3983 30.2957 21.5124 30.4303C21.6265 30.565 21.796 30.6537 21.9833 30.6769C22.6489 30.7607 23.2764 31.005 23.7981 31.3836C24.3199 31.7621 24.716 32.2605 24.9441 32.825C25.009 32.9831 25.0607 33.1452 25.0989 33.31L25.0902 33.3048ZM39.4383 32.8486C39.6216 32.8647 39.8048 32.8169 39.9494 32.7152C40.0941 32.6135 40.1889 32.4657 40.2143 32.3029C40.2395 32.1401 40.1933 31.9749 40.0851 31.8418C39.9769 31.7088 39.8153 31.6183 39.634 31.5894C38.8782 31.4954 38.1084 31.5544 37.3816 31.762C36.6548 31.9696 35.9896 32.3205 35.4353 32.7886C35.6724 33.2329 35.8376 33.7053 35.9257 34.1911C36.319 33.705 36.8525 33.3234 37.4697 33.087C38.0868 32.8505 38.7641 32.7681 39.4296 32.8486H39.4383ZM33.8146 34.4127C33.8989 34.7836 33.9117 35.1644 33.8527 35.539C33.7294 36.3446 33.8473 37.1649 34.1943 37.9166C34.2449 38.0261 34.3004 38.1329 34.3607 38.2373C34.4143 38.3382 34.4737 38.4365 34.5389 38.5319C34.9273 39.1189 35.4592 39.6201 36.0946 39.9984C36.73 40.3767 37.4528 40.6221 38.2091 40.7166C38.3931 40.7345 38.5778 40.6878 38.7238 40.5863C38.87 40.4848 38.9661 40.3366 38.9919 40.1729C39.0177 40.0092 38.9711 39.843 38.8621 39.7095C38.753 39.5759 38.5901 39.4855 38.4077 39.4574C37.7409 39.3726 37.1124 39.1273 36.5899 38.748C36.0673 38.3686 35.6701 37.8695 35.441 37.3039C35.3796 37.1454 35.3298 36.9834 35.2922 36.819C35.2081 36.4482 35.1953 36.0674 35.2543 35.6928C35.3769 34.8874 35.26 34.0674 34.9154 33.3152C34.863 33.2084 34.8104 33.0962 34.752 32.9945C34.6936 32.8928 34.6353 32.7964 34.5681 32.6999C34.1792 32.1138 33.6474 31.6134 33.0122 31.2359C32.3771 30.8584 31.6549 30.6135 30.8992 30.5193C30.1436 30.4252 29.3738 30.4841 28.6472 30.692C27.9205 30.8998 27.2557 31.2511 26.7019 31.7197C26.9384 32.1639 27.1054 32.6349 27.1983 33.1197C27.5901 32.6318 28.1239 32.2488 28.742 32.0122C29.36 31.7757 30.0386 31.6944 30.7046 31.7774C31.3706 31.8604 31.9986 32.1042 32.5204 32.4829C33.0424 32.8614 33.4385 33.3602 33.6658 33.9253C33.7273 34.0847 33.7771 34.2476 33.8146 34.4127Z" fill="#008071"/>
    <path d="M31.0148 1.60502e-05H5.46006C4.89397 1.60502e-05 4.35107 0.200799 3.95079 0.558194C3.55051 0.91559 3.32562 1.40032 3.32562 1.90576V15.5823C3.32562 16.0877 3.55051 16.5725 3.95079 16.9298C4.35107 17.2872 4.89397 17.488 5.46006 17.488H15.735L22.7428 23.4841L21.7443 17.488H31.0236C31.5896 17.488 32.1325 17.2872 32.5329 16.9298C32.9331 16.5725 33.158 16.0877 33.158 15.5823V1.90576C33.158 1.65483 33.1025 1.40638 32.9947 1.17465C32.8869 0.942923 32.7288 0.732488 32.5298 0.555422C32.3306 0.378354 32.0942 0.238142 31.8342 0.142831C31.5743 0.0475197 31.2959 -0.00101374 31.0148 1.60502e-05Z" fill="#00856F"/>
    <path d="M11.0075 9.11674L14.6602 12.3781L23.1191 4.82556" stroke="white" stroke-width="0.912461" stroke-linecap="round" stroke-linejoin="round"/>
    </g>
    <defs>
    <clipPath id="clip0_1_111">
    <rect width="64" height="64" fill="white"/>
    </clipPath>
    </defs>
</symbol>

<symbol viewBox="0 0 64 64" id="costs">
    <g>
    <path d="M51.9753 58.8305V0H0V58.8305H51.9753Z" fill="#DCE9E1"/>
    <path d="M46.9732 51.1153V7.71216H5.0061V51.1153H46.9732Z" stroke="#70B2A6" stroke-width="1.05071" stroke-miterlimit="10"/>
    <path d="M5.20044 25.6702H46.4558" stroke="#70B2A6" stroke-width="1.05071" stroke-linecap="round" stroke-linejoin="round"/>
    <path d="M5.22888 38.5367H46.4843" stroke="#70B2A6" stroke-width="1.05071" stroke-linecap="round" stroke-linejoin="round"/>
    <path d="M15.5646 7.8772V50.9531" stroke="#70B2A6" stroke-width="1.05071" stroke-linecap="round" stroke-linejoin="round"/>
    <path d="M25.9874 7.8772V50.9531" stroke="#70B2A6" stroke-width="1.05071" stroke-linecap="round" stroke-linejoin="round"/>
    <path d="M36.4106 7.8772V50.9531" stroke="#70B2A6" stroke-width="1.05071" stroke-linecap="round" stroke-linejoin="round"/>
    <path d="M47.5761 6.41821H4.35791V14.4606H47.5761V6.41821Z" fill="#70B2A6"/>
    <path d="M63.6143 46.072C55.8396 34.6253 41.7378 40.068 34.308 28.267L28.7341 45.0513C28.7611 45.9129 28.9172 46.7576 29.1926 47.5325C29.468 48.3073 29.8567 48.9957 30.3345 49.5543C33.4479 52.3371 37.2381 53.6341 40.8143 54.8589C46.9274 56.1707 53.8113 56.7022 57.8919 64.0151C59.6386 58.3232 61.5889 52.7615 63.7431 47.3298C63.7997 47.2384 63.8415 47.1315 63.8657 47.0162C63.8901 46.901 63.8963 46.78 63.8842 46.6611C63.872 46.5423 63.8416 46.4283 63.7952 46.3267C63.7486 46.2253 63.687 46.1384 63.6143 46.072Z" fill="#00856F"/>
    <path d="M61.3284 46.8315C54.3724 37.5703 42.1896 42.2564 34.9433 33.0222L30.9152 45.6307C37.1179 54.4116 46.9645 51.7098 54.4947 56.7652C55.547 57.3655 56.6583 58.1522 57.1582 59.5691L61.4331 47.9483C61.516 47.7758 61.551 47.568 61.5318 47.3631C61.5126 47.1581 61.4403 46.9694 61.3284 46.8315Z" fill="#70B3A7"/>
    <path d="M50.2614 44.0578C49.8902 41.2209 47.5825 40.9206 45.8643 41.1908C43.4124 41.2449 41.0741 44.5981 41.5981 48.0263C42.8797 55.1111 51.7199 50.6021 50.2614 44.0578Z" fill="#DCE9E2"/>
    </g>
    <defs>

</symbol>

<symbol viewBox="0 0 216 183" id="decor">
    <rect width="216" height="183" fill="#E5E5E5"/>
    <g id="Desktop" clip-path="url(#clip0_0_1)">
    <rect width="1440" height="7550" transform="translate(0 -2419)" fill="white"/>
    <g id="Frame">
    <path id="Rectangle" d="M0 -38H1440V595H0V-38Z" fill="white"/>
    <g id="Frame_2">
    <path id="Vector" d="M215.981 94.373L171.677 114.54C171.677 114.54 131.745 38.1464 83.7518 59.9958C35.7591 81.8451 70.1586 160.756 70.1586 160.756L22.1661 182.606C22.1661 182.606 -49.0127 62.8821 62.6555 12.0429C174.324 -38.7963 215.981 94.373 215.981 94.373Z" fill="#F1F7F6"/>
    </g>
    </g>
    </g>
    <defs>
    <clipPath id="clip0_0_1">
    <rect width="1440" height="7550" fill="white" transform="translate(0 -2419)"/>
    </clipPath>
    </defs>

</symbol>

</svg>

