<svg width="130" height="39" viewBox="0 0 130 39" fill="none" xmlns="http://www.w3.org/2000/svg">
<g clip-path="url(#clip0_1_440)">
<path d="M125.375 39H4.55385C2.04341 39 0 36.9252 0 34.3853V4.60785C0 2.067 2.04341 0 4.55385 0H125.375C127.884 0 130 2.067 130 4.60785V34.3853C130 36.9252 127.884 39 125.375 39Z" fill="#A6A6A6"/>
<path d="M129.068 34.3862C129.068 36.4493 127.417 38.1205 125.376 38.1205H4.55387C2.51335 38.1205 0.857056 36.4493 0.857056 34.3862V4.6068C0.857056 2.54468 2.51335 0.867676 4.55387 0.867676H125.375C127.417 0.867676 129.067 2.54468 129.067 4.6068L129.068 34.3862Z" fill="black"/>
<path d="M29.0121 19.2893C28.9842 16.1469 31.5534 14.6181 31.6709 14.5469C30.2158 12.399 27.9606 12.1055 27.1681 12.0821C25.2739 11.8803 23.4366 13.2297 22.4717 13.2297C21.4875 13.2297 20.0017 12.1016 18.4003 12.1347C16.3395 12.1669 14.4117 13.3749 13.3544 15.2508C11.1723 19.0758 12.7997 24.6966 14.8903 27.7884C15.9361 29.3025 17.1581 30.9932 18.7575 30.9337C20.3224 30.8684 20.9069 29.9236 22.7952 29.9236C24.6663 29.9236 25.2152 30.9337 26.8464 30.8957C28.5258 30.8684 29.5832 29.3747 30.5924 27.8469C31.8009 26.1114 32.2862 24.4022 32.3055 24.3144C32.266 24.3008 29.0439 23.0557 29.0121 19.2893Z" fill="white"/>
<path d="M25.9307 10.0483C26.7723 8.98262 27.3481 7.5328 27.1883 6.06152C25.9701 6.11612 24.4467 6.91465 23.5695 7.95692C22.7933 8.87537 22.1 10.3808 22.2791 11.7965C23.6475 11.8998 25.0524 11.0974 25.9307 10.0483Z" fill="white"/>
<path d="M51.6581 30.716H49.4712L48.2733 26.9047H44.1095L42.9683 30.716H40.8392L44.9646 17.7407H47.5126L51.6581 30.716ZM47.9122 25.3057L46.8289 21.9176C46.7143 21.5715 46.4995 20.7564 46.1827 19.4733H46.1442C46.018 20.0251 45.8149 20.8402 45.5356 21.9176L44.4715 25.3057H47.9122Z" fill="white"/>
<path d="M62.2671 25.923C62.2671 27.5142 61.8425 28.772 60.9931 29.6953C60.2324 30.5172 59.2877 30.9277 58.1601 30.9277C56.9429 30.9277 56.0686 30.4851 55.536 29.5998H55.4975V34.5284H53.4445V24.4401C53.4445 23.4397 53.4185 22.413 53.3684 21.36H55.174L55.2886 22.843H55.3271C56.0117 21.7257 57.0508 21.168 58.4451 21.168C59.5352 21.168 60.4452 21.6038 61.1732 22.4764C61.9031 23.35 62.2671 24.4986 62.2671 25.923ZM60.1756 25.9991C60.1756 25.0884 59.9734 24.3377 59.567 23.7468C59.1231 23.1306 58.527 22.8225 57.7797 22.8225C57.2732 22.8225 56.8129 22.9941 56.4017 23.3325C55.9896 23.6737 55.72 24.1193 55.5938 24.6711C55.5303 24.9285 55.4985 25.1391 55.4985 25.3049V26.8649C55.4985 27.5454 55.7046 28.1197 56.1167 28.5887C56.5289 29.0577 57.0643 29.2917 57.7229 29.2917C58.4962 29.2917 59.098 28.9894 59.5285 28.3869C59.9599 27.7833 60.1756 26.9877 60.1756 25.9991Z" fill="white"/>
<path d="M72.8953 25.923C72.8953 27.5142 72.4707 28.772 71.6204 29.6953C70.8606 30.5172 69.9159 30.9277 68.7883 30.9277C67.5711 30.9277 66.6967 30.4851 66.1652 29.5998H66.1267V34.5284H64.0736V24.4401C64.0736 23.4397 64.0476 22.413 63.9976 21.36H65.8031L65.9177 22.843H65.9562C66.6399 21.7257 67.679 21.168 69.0743 21.168C70.1634 21.168 71.0734 21.6038 71.8033 22.4764C72.5304 23.35 72.8953 24.4986 72.8953 25.923ZM70.8038 25.9991C70.8038 25.0884 70.6006 24.3377 70.1942 23.7468C69.7503 23.1306 69.1562 22.8225 68.4079 22.8225C67.9004 22.8225 67.4411 22.9941 67.029 23.3325C66.6168 23.6737 66.3481 24.1193 66.222 24.6711C66.1594 24.9285 66.1267 25.1391 66.1267 25.3049V26.8649C66.1267 27.5454 66.3327 28.1197 66.743 28.5887C67.1551 29.0567 67.6905 29.2917 68.3511 29.2917C69.1244 29.2917 69.7262 28.9894 70.1567 28.3869C70.5881 27.7833 70.8038 26.9877 70.8038 25.9991Z" fill="white"/>
<path d="M84.7782 27.0775C84.7782 28.1812 84.3998 29.0792 83.64 29.7724C82.8051 30.53 81.6428 30.9083 80.1493 30.9083C78.7703 30.9083 77.6648 30.6392 76.828 30.1L77.3037 28.3674C78.205 28.9193 79.194 29.1962 80.2716 29.1962C81.0448 29.1962 81.6467 29.0187 82.079 28.6658C82.5095 28.3128 82.7242 27.839 82.7242 27.2481C82.7242 26.7216 82.547 26.278 82.1917 25.9182C81.8383 25.5585 81.248 25.224 80.4237 24.915C78.18 24.0677 77.0591 22.8265 77.0591 21.1944C77.0591 20.1277 77.452 19.2531 78.2387 18.5726C79.0226 17.8911 80.0684 17.5508 81.3761 17.5508C82.5422 17.5508 83.511 17.7565 84.2842 18.167L83.771 19.8615C83.0487 19.4637 82.2322 19.2648 81.3183 19.2648C80.5961 19.2648 80.0318 19.4452 79.6273 19.804C79.2855 20.1248 79.1141 20.5158 79.1141 20.9789C79.1141 21.4917 79.3096 21.9159 79.7024 22.2493C80.0443 22.5574 80.6654 22.8909 81.5667 23.2506C82.6693 23.7001 83.4792 24.2256 84.0002 24.8282C84.5192 25.4288 84.7782 26.1805 84.7782 27.0775Z" fill="white"/>
<path d="M91.5661 22.92H89.3032V27.4626C89.3032 28.6179 89.7019 29.1951 90.5011 29.1951C90.868 29.1951 91.1723 29.163 91.413 29.0986L91.4699 30.6771C91.0654 30.8302 90.5329 30.9072 89.8733 30.9072C89.0624 30.9072 88.4288 30.6567 87.9714 30.1565C87.5159 29.6553 87.2867 28.8149 87.2867 27.6342V22.9181H85.9386V21.3581H87.2867V19.645L89.3032 19.0288V21.3581H91.5661V22.92Z" fill="white"/>
<path d="M101.776 25.9611C101.776 27.3992 101.37 28.5799 100.559 29.5032C99.709 30.4539 98.5804 30.9277 97.1735 30.9277C95.8177 30.9277 94.7382 30.4724 93.9331 29.5617C93.1281 28.6511 92.7256 27.5016 92.7256 26.1161C92.7256 24.6663 93.1397 23.4787 93.9707 22.5554C94.7998 21.6311 95.9188 21.1689 97.3257 21.1689C98.6815 21.1689 99.7725 21.6243 100.596 22.5359C101.384 23.4202 101.776 24.5619 101.776 25.9611ZM99.6464 26.0283C99.6464 25.1655 99.4644 24.4254 99.0956 23.8083C98.6651 23.0614 98.0498 22.689 97.2525 22.689C96.4272 22.689 95.8003 23.0624 95.3699 23.8083C95.0011 24.4264 94.8191 25.1781 94.8191 26.0673C94.8191 26.9302 95.0011 27.6702 95.3699 28.2864C95.8138 29.0333 96.434 29.4057 97.2342 29.4057C98.018 29.4057 98.6334 29.0255 99.0773 28.2669C99.4557 27.6381 99.6464 26.8902 99.6464 26.0283Z" fill="white"/>
<path d="M108.45 23.1882C108.247 23.1501 108.03 23.1306 107.803 23.1306C107.08 23.1306 106.522 23.4066 106.129 23.9594C105.787 24.4469 105.616 25.0631 105.616 25.807V30.7161H103.564L103.583 24.3065C103.583 23.2281 103.557 22.2463 103.506 21.361H105.294L105.369 23.1511H105.426C105.643 22.5359 105.985 22.0406 106.453 21.6691C106.91 21.3347 107.404 21.168 107.937 21.168C108.126 21.168 108.298 21.1816 108.45 21.206V23.1882Z" fill="white"/>
<path d="M117.632 25.5954C117.632 25.9679 117.608 26.2818 117.557 26.5382H111.397C111.422 27.4625 111.719 28.1694 112.291 28.6569C112.81 29.0927 113.481 29.3111 114.306 29.3111C115.218 29.3111 116.05 29.1639 116.798 28.8685L117.119 30.3115C116.245 30.6976 115.213 30.8897 114.022 30.8897C112.589 30.8897 111.464 30.4626 110.645 29.6095C109.829 28.7564 109.42 27.6107 109.42 26.1736C109.42 24.7628 109.8 23.5879 110.562 22.6509C111.359 21.6506 112.437 21.1504 113.792 21.1504C115.124 21.1504 116.132 21.6506 116.817 22.6509C117.359 23.4455 117.632 24.4283 117.632 25.5954ZM115.674 25.0562C115.687 24.44 115.554 23.9077 115.275 23.4582C114.92 22.88 114.374 22.5914 113.639 22.5914C112.968 22.5914 112.422 22.8732 112.005 23.4387C111.663 23.8882 111.46 24.4274 111.397 25.0553H115.674V25.0562Z" fill="white"/>
<path d="M47.2333 9.75873C47.2333 10.9063 46.8934 11.7702 46.2145 12.3503C45.5857 12.8856 44.6921 13.1537 43.5346 13.1537C42.9606 13.1537 42.4695 13.1283 42.0583 13.0776V6.8074C42.5947 6.71965 43.1725 6.6748 43.7965 6.6748C44.8991 6.6748 45.7301 6.91758 46.2906 7.40313C46.9184 7.95205 47.2333 8.73693 47.2333 9.75873ZM46.1692 9.787C46.1692 9.04308 45.9747 8.4727 45.5857 8.0749C45.1966 7.67808 44.6285 7.47918 43.8803 7.47918C43.5625 7.47918 43.2919 7.50063 43.0675 7.54548V12.3123C43.1918 12.3318 43.419 12.3405 43.7493 12.3405C44.5216 12.3405 45.1177 12.1231 45.5375 11.6883C45.9574 11.2534 46.1692 10.6197 46.1692 9.787Z" fill="white"/>
<path d="M52.8753 10.7609C52.8753 11.4678 52.676 12.0469 52.2773 12.5013C51.8594 12.9683 51.3057 13.2013 50.6143 13.2013C49.9479 13.2013 49.4173 12.978 49.0215 12.5295C48.6267 12.082 48.4293 11.5175 48.4293 10.8369C48.4293 10.1252 48.6325 9.54115 49.0408 9.08778C49.4491 8.6344 49.998 8.40723 50.6894 8.40723C51.3558 8.40723 51.8912 8.6305 52.2966 9.07803C52.6818 9.51288 52.8753 10.0745 52.8753 10.7609ZM51.8286 10.794C51.8286 10.3699 51.7381 10.0062 51.558 9.703C51.3461 9.3364 51.0447 9.1531 50.6528 9.1531C50.2474 9.1531 49.9392 9.3364 49.7274 9.703C49.5464 10.0062 49.4568 10.3758 49.4568 10.8126C49.4568 11.2367 49.5473 11.6004 49.7274 11.9036C49.946 12.2702 50.2503 12.4535 50.6432 12.4535C51.0284 12.4535 51.3307 12.2673 51.5484 11.8938C51.7352 11.5848 51.8286 11.2182 51.8286 10.794Z" fill="white"/>
<path d="M60.4403 8.50098L59.0199 13.0971H58.0955L57.5071 11.1013C57.3579 10.6031 57.2365 10.1078 57.1422 9.61638H57.1239C57.0362 10.1214 56.9149 10.6158 56.7589 11.1013L56.1339 13.0971H55.1989L53.8633 8.50098H54.9004L55.4136 10.686C55.5379 11.2027 55.6399 11.6951 55.7218 12.1611H55.7401C55.8152 11.777 55.9394 11.2875 56.1147 10.6957L56.7589 8.50195H57.5813L58.1985 10.6489C58.3478 11.1725 58.4691 11.6766 58.5625 12.1621H58.5905C58.6588 11.6892 58.7619 11.1852 58.8986 10.6489L59.4494 8.50195H60.4403V8.50098Z" fill="white"/>
<path d="M65.6721 13.097H64.6629V10.4645C64.6629 9.65327 64.3586 9.24767 63.7481 9.24767C63.4486 9.24767 63.2069 9.35882 63.0191 9.5821C62.8333 9.80537 62.7389 10.0686 62.7389 10.3699V13.096H61.7297V9.81415C61.7297 9.4105 61.7172 8.97272 61.6931 8.49887H62.58L62.6272 9.21745H62.6551C62.7726 8.99417 62.9479 8.8099 63.178 8.66267C63.4515 8.49107 63.7577 8.4043 64.0928 8.4043C64.5165 8.4043 64.869 8.54275 65.1492 8.82062C65.4978 9.1609 65.6721 9.66887 65.6721 10.3436V13.097Z" fill="white"/>
<path d="M68.4551 13.0972H67.4469V6.39209H68.4551V13.0972Z" fill="white"/>
<path d="M74.3966 10.7609C74.3966 11.4678 74.1972 12.0469 73.7986 12.5013C73.3806 12.9683 72.826 13.2013 72.1355 13.2013C71.4682 13.2013 70.9376 12.978 70.5428 12.5295C70.148 12.082 69.9506 11.5175 69.9506 10.8369C69.9506 10.1252 70.1537 9.54115 70.562 9.08778C70.9703 8.6344 71.5192 8.40723 72.2097 8.40723C72.877 8.40723 73.4114 8.6305 73.8178 9.07803C74.203 9.51288 74.3966 10.0745 74.3966 10.7609ZM73.3489 10.794C73.3489 10.3699 73.2583 10.0062 73.0783 9.703C72.8674 9.3364 72.565 9.1531 72.174 9.1531C71.7677 9.1531 71.4595 9.3364 71.2486 9.703C71.0676 10.0062 70.978 10.3758 70.978 10.8126C70.978 11.2367 71.0686 11.6004 71.2486 11.9036C71.4672 12.2702 71.7715 12.4535 72.1644 12.4535C72.5496 12.4535 72.851 12.2673 73.0686 11.8938C73.2564 11.5848 73.3489 11.2182 73.3489 10.794Z" fill="white"/>
<path d="M79.2807 13.097H78.3746L78.2995 12.5676H78.2716C77.9615 12.9897 77.5195 13.2013 76.9456 13.2013C76.517 13.2013 76.1704 13.0619 75.9094 12.785C75.6725 12.5334 75.5541 12.2205 75.5541 11.849C75.5541 11.2874 75.7852 10.8594 76.2503 10.563C76.7144 10.2666 77.3673 10.1213 78.208 10.1281V10.0423C78.208 9.43683 77.8941 9.13458 77.2653 9.13458C76.8175 9.13458 76.4227 9.24865 76.0818 9.47485L75.8767 8.80405C76.2984 8.53983 76.8194 8.40723 77.4338 8.40723C78.6202 8.40723 79.2153 9.04098 79.2153 10.3085V12.0011C79.2153 12.4603 79.2374 12.8259 79.2807 13.097ZM78.233 11.5175V10.8087C77.1199 10.7892 76.5633 11.0982 76.5633 11.7349C76.5633 11.9748 76.6268 12.1542 76.7568 12.2741C76.8868 12.394 77.0524 12.4535 77.2499 12.4535C77.4713 12.4535 77.6784 12.3823 77.8671 12.2409C78.0568 12.0986 78.1733 11.9182 78.2167 11.6969C78.2273 11.6472 78.233 11.5867 78.233 11.5175Z" fill="white"/>
<path d="M85.0152 13.0972H84.1197L84.0725 12.3591H84.0445C83.7585 12.9207 83.2713 13.2015 82.5866 13.2015C82.0397 13.2015 81.5842 12.9841 81.2231 12.5492C80.862 12.1144 80.6819 11.5498 80.6819 10.8566C80.6819 10.1127 80.8774 9.51014 81.2703 9.04994C81.6506 8.62094 82.1167 8.40644 82.6714 8.40644C83.2809 8.40644 83.7075 8.61411 83.9502 9.03044H83.9694V6.39209H84.9796V11.8589C84.9796 12.3064 84.9911 12.7189 85.0152 13.0972ZM83.9694 11.1589V10.3925C83.9694 10.2599 83.9598 10.1527 83.9415 10.0708C83.8847 9.82507 83.7624 9.61837 83.5765 9.45164C83.3888 9.28491 83.1625 9.20107 82.9015 9.20107C82.525 9.20107 82.2303 9.35219 82.0137 9.65541C81.7989 9.95864 81.6901 10.3457 81.6901 10.8186C81.6901 11.2729 81.7931 11.6415 82.0002 11.9252C82.2188 12.2275 82.5134 12.3786 82.8822 12.3786C83.2135 12.3786 83.4783 12.2528 83.6796 12.0003C83.8741 11.7673 83.9694 11.4865 83.9694 11.1589Z" fill="white"/>
<path d="M93.6462 10.7609C93.6462 11.4678 93.4469 12.0469 93.0482 12.5013C92.6303 12.9683 92.0775 13.2013 91.3852 13.2013C90.7198 13.2013 90.1892 12.978 89.7924 12.5295C89.3976 12.082 89.2002 11.5175 89.2002 10.8369C89.2002 10.1252 89.4034 9.54115 89.8117 9.08778C90.22 8.6344 90.7689 8.40723 91.4612 8.40723C92.1266 8.40723 92.663 8.6305 93.0675 9.07803C93.4526 9.51288 93.6462 10.0745 93.6462 10.7609ZM92.6004 10.794C92.6004 10.3699 92.5099 10.0062 92.3298 9.703C92.117 9.3364 91.8166 9.1531 91.4237 9.1531C91.0192 9.1531 90.7111 9.3364 90.4983 9.703C90.3172 10.0062 90.2277 10.3758 90.2277 10.8126C90.2277 11.2367 90.3182 11.6004 90.4983 11.9036C90.7169 12.2702 91.0212 12.4535 91.414 12.4535C91.7992 12.4535 92.1026 12.2673 92.3202 11.8938C92.506 11.5848 92.6004 11.2182 92.6004 10.794Z" fill="white"/>
<path d="M99.0725 13.097H98.0643V10.4645C98.0643 9.65327 97.76 9.24767 97.1485 9.24767C96.849 9.24767 96.6073 9.35882 96.4205 9.5821C96.2337 9.80537 96.1403 10.0686 96.1403 10.3699V13.096H95.1301V9.81415C95.1301 9.4105 95.1186 8.97272 95.0945 8.49887H95.9804L96.0276 9.21745H96.0555C96.174 8.99417 96.3492 8.8099 96.5784 8.66267C96.8529 8.49107 97.1581 8.4043 97.4942 8.4043C97.9169 8.4043 98.2694 8.54275 98.5496 8.82062C98.8992 9.1609 99.0725 9.66887 99.0725 10.3436V13.097Z" fill="white"/>
<path d="M105.864 9.26647H104.753V11.4992C104.753 12.0667 104.95 12.3504 105.341 12.3504C105.522 12.3504 105.673 12.3348 105.791 12.3026L105.817 13.0777C105.618 13.1538 105.356 13.1918 105.033 13.1918C104.635 13.1918 104.324 13.069 104.1 12.8233C103.875 12.5776 103.763 12.1642 103.763 11.584V9.26647H103.1V8.5011H103.763V7.6587L104.752 7.35645V8.50012H105.863V9.26647H105.864Z" fill="white"/>
<path d="M111.207 13.0972H110.197V10.4842C110.197 9.66029 109.892 9.24786 109.283 9.24786C108.815 9.24786 108.495 9.48674 108.32 9.96449C108.29 10.0649 108.273 10.1878 108.273 10.3321V13.0962H107.264V6.39209H108.273V9.16207H108.292C108.61 8.65799 109.065 8.40644 109.655 8.40644C110.073 8.40644 110.419 8.54489 110.694 8.82276C111.035 9.16889 111.207 9.68369 111.207 10.3642V13.0972Z" fill="white"/>
<path d="M116.718 10.5815C116.718 10.7648 116.704 10.9188 116.68 11.0446H113.654C113.667 11.4989 113.812 11.8451 114.092 12.0849C114.348 12.2994 114.678 12.4067 115.083 12.4067C115.53 12.4067 115.939 12.3345 116.307 12.1892L116.465 12.899C116.034 13.0882 115.528 13.1828 114.941 13.1828C114.238 13.1828 113.684 12.9731 113.284 12.5539C112.881 12.1346 112.682 11.5721 112.682 10.8662C112.682 10.1729 112.868 9.59574 113.242 9.13554C113.633 8.64414 114.162 8.39844 114.829 8.39844C115.482 8.39844 115.978 8.64414 116.313 9.13554C116.584 9.52554 116.718 10.0082 116.718 10.5815ZM115.755 10.3172C115.763 10.014 115.696 9.75271 115.559 9.53236C115.384 9.24864 115.117 9.10629 114.756 9.10629C114.427 9.10629 114.158 9.24474 113.953 9.52261C113.786 9.74394 113.686 10.0082 113.654 10.3172H115.755Z" fill="white"/>
</g>
<defs>
<clipPath id="clip0_1_440">
<rect width="130" height="39" fill="white"/>
</clipPath>
</defs>
</svg>
