<svg width="32" height="31" viewBox="0 0 32 31" fill="none" xmlns="http://www.w3.org/2000/svg">
<g clip-path="url(#clip0_1_432)">
<path d="M30.7857 0H1.30363C0.959816 0.00596804 0.631811 0.140568 0.388659 0.375466C0.145508 0.610363 0.00617775 0.927233 0 1.25937V29.6437C0 30.4188 0.601674 31 1.30363 31H17.0474V19.375H13.0363V14.5312H17.0474V10.6562C17.0474 6.68437 19.6547 4.65 23.365 4.65C25.17 4.65 26.6742 4.84375 27.0753 4.84375V9.00937H24.4681C22.4625 9.00937 21.9611 9.97812 21.9611 11.3344V14.5312H26.9751L25.9722 19.375H21.9611L22.0614 31H30.6854C31.3874 31 31.989 30.4187 31.989 29.7406V1.25937C32.0893 0.58125 31.4876 0 30.7857 0Z" fill="#00856F"/>
</g>
<defs>
<clipPath id="clip0_1_432">
<rect width="32" height="31" fill="white"/>
</clipPath>
</defs>
</svg>
