<svg width="130" height="39" viewBox="0 0 130 39" fill="none" xmlns="http://www.w3.org/2000/svg">
<g clip-path="url(#clip0_1_472)">
<path d="M125.171 39H4.82877C2.15753 39 0 36.7813 0 34.112V4.888C0 2.184 2.15753 0 4.82877 0H125.205C127.842 0 130.034 2.184 130.034 4.888V34.112C130 36.7813 127.808 39 125.171 39Z" fill="black"/>
<path d="M125.171 0.762667C127.397 0.762667 129.212 2.6 129.212 4.85333V34.0773C129.212 36.3307 127.397 38.168 125.171 38.168H4.82877C2.60274 38.168 0.787671 36.3307 0.787671 34.0773V4.888C0.787671 2.63467 2.60274 0.797333 4.82877 0.797333H125.171V0.762667ZM125.171 0H4.82877C2.15753 0 0 2.184 0 4.888V34.112C0 36.7813 2.15753 39 4.82877 39H125.205C127.842 39 130.034 36.816 130.034 34.112V4.888C130 2.184 127.808 0 125.171 0Z" fill="#262626"/>
<path d="M45.6507 9.98376C45.6507 10.8158 45.411 11.4398 44.9315 11.9251C44.3836 12.5144 43.6644 12.7918 42.8083 12.7918C41.9863 12.7918 41.2672 12.5144 40.685 11.9251C40.1028 11.3358 39.7946 10.6078 39.7946 9.7411C39.7946 8.87443 40.1028 8.14643 40.685 7.5571C41.2672 6.96776 41.9863 6.69043 42.8083 6.69043C43.2192 6.69043 43.6302 6.75976 44.0069 6.9331C44.3836 7.10643 44.6918 7.31443 44.8973 7.59176L44.3836 8.11176C44.0069 7.6611 43.4589 7.41843 42.8083 7.41843C42.1918 7.41843 41.6781 7.62643 41.2329 8.0771C40.7877 8.4931 40.5822 9.08243 40.5822 9.77576C40.5822 10.4691 40.7877 11.0238 41.2329 11.4744C41.6781 11.8904 42.1918 12.1331 42.8083 12.1331C43.4589 12.1331 44.0069 11.9251 44.4178 11.4744C44.6918 11.1971 44.8631 10.7811 44.8973 10.2958H42.8083V9.60243H45.6165C45.6507 9.70643 45.6507 9.8451 45.6507 9.98376Z" fill="white" stroke="white" stroke-width="0.2" stroke-miterlimit="10"/>
<path d="M50.1027 7.5571H47.4658V9.39443H49.8288V10.0878H47.4658V11.9251H50.1027V12.6531H46.7466V6.8291H50.1027V7.5571Z" fill="white" stroke="white" stroke-width="0.2" stroke-miterlimit="10"/>
<path d="M53.2192 12.6878H52.4658V7.5571H50.8562V6.8291H54.8288V7.5571H53.2192V12.6878Z" fill="white" stroke="white" stroke-width="0.2" stroke-miterlimit="10"/>
<path d="M57.7056 12.6878V6.8291H58.459V12.6878H57.7056Z" fill="white" stroke="white" stroke-width="0.2" stroke-miterlimit="10"/>
<path d="M61.7466 12.6878H60.9931V7.5571H59.3835V6.8291H63.3561V7.5571H61.7466V12.6878Z" fill="white" stroke="white" stroke-width="0.2" stroke-miterlimit="10"/>
<path d="M70.8904 11.9251C70.3082 12.5144 69.6233 12.8264 68.7672 12.8264C67.911 12.8264 67.2261 12.5144 66.6439 11.9251C66.0617 11.3358 65.7877 10.6078 65.7877 9.7411C65.7877 8.87443 66.0617 8.14643 66.6439 7.55709C67.2261 6.96776 67.911 6.65576 68.7672 6.65576C69.6233 6.65576 70.3082 6.96776 70.8904 7.55709C71.4726 8.14643 71.7466 8.87443 71.7466 9.70643C71.7124 10.6078 71.4384 11.3358 70.8904 11.9251ZM67.1918 11.4398C67.6028 11.8904 68.1507 12.0984 68.7672 12.0984C69.3836 12.0984 69.8973 11.8904 70.3425 11.4398C70.7534 10.9891 70.9932 10.4344 70.9932 9.77576C70.9932 9.1171 70.7877 8.52776 70.3425 8.11176C69.9315 7.66109 69.3836 7.45309 68.7672 7.45309C68.1507 7.45309 67.637 7.66109 67.1918 8.11176C66.7809 8.56243 66.5411 9.1171 66.5411 9.77576C66.5411 10.4344 66.7466 10.9891 67.1918 11.4398Z" fill="white" stroke="white" stroke-width="0.2" stroke-miterlimit="10"/>
<path d="M72.774 12.6878V6.8291H73.6645L76.4727 11.3704H76.5069L76.4727 10.2264V6.79443H77.2261V12.6531H76.4384L73.4932 7.8691H73.459L73.4932 9.0131V12.6531H72.774V12.6878Z" fill="white" stroke="white" stroke-width="0.2" stroke-miterlimit="10"/>
<path d="M65.6165 21.2161C63.3562 21.2161 61.5069 22.9495 61.5069 25.3761C61.5069 27.7681 63.3562 29.5361 65.6165 29.5361C67.8767 29.5361 69.726 27.7681 69.726 25.3761C69.726 22.9495 67.8767 21.2161 65.6165 21.2161ZM65.6165 27.8721C64.3836 27.8721 63.3219 26.8321 63.3219 25.3761C63.3219 23.8855 64.3836 22.8801 65.6165 22.8801C66.8493 22.8801 67.911 23.8855 67.911 25.3761C67.911 26.8321 66.8493 27.8721 65.6165 27.8721ZM56.6438 21.2161C54.3836 21.2161 52.5343 22.9495 52.5343 25.3761C52.5343 27.7681 54.3836 29.5361 56.6438 29.5361C58.9041 29.5361 60.7534 27.7681 60.7534 25.3761C60.7534 22.9495 58.9041 21.2161 56.6438 21.2161ZM56.6438 27.8721C55.411 27.8721 54.3493 26.8321 54.3493 25.3761C54.3493 23.8855 55.411 22.8801 56.6438 22.8801C57.8767 22.8801 58.9384 23.8855 58.9384 25.3761C58.9384 26.8321 57.8767 27.8721 56.6438 27.8721ZM45.9589 22.4641V24.2321H50.1028C49.9658 25.2375 49.6575 25.9308 49.1439 26.4508C48.5274 27.0748 47.6028 27.7335 45.9247 27.7335C43.3562 27.7335 41.3699 25.6535 41.3699 23.0535C41.3699 20.4535 43.4247 18.3735 45.9589 18.3735C47.3288 18.3735 48.3562 18.9281 49.1096 19.6215L50.3425 18.3735C49.3151 17.3681 47.911 16.6055 45.9932 16.6055C42.5 16.6055 39.5548 19.4828 39.5548 23.0535C39.5548 26.5895 42.5 29.5015 45.9932 29.5015C47.8767 29.5015 49.3151 28.8775 50.4452 27.6988C51.6096 26.5201 51.9521 24.8908 51.9521 23.5735C51.9521 23.1575 51.9178 22.7761 51.8493 22.4641H45.9589ZM89.5891 23.8508C89.2466 22.9148 88.2192 21.2161 86.0959 21.2161C83.9726 21.2161 82.226 22.8801 82.226 25.3761C82.226 27.6988 83.9726 29.5361 86.3014 29.5361C88.1849 29.5361 89.2808 28.3575 89.726 27.6988L88.3219 26.7628C87.8425 27.4561 87.226 27.9068 86.3014 27.9068C85.3767 27.9068 84.726 27.4908 84.3151 26.6588L89.7945 24.3708L89.5891 23.8508ZM84.0069 25.2375C83.9726 23.6428 85.2397 22.8108 86.1644 22.8108C86.8836 22.8108 87.5 23.1575 87.6712 23.6775L84.0069 25.2375ZM79.5548 29.2588H81.3699V17.0561H79.5548V29.2588ZM76.6096 22.1175H76.5411C76.1301 21.6321 75.3767 21.1815 74.3836 21.1815C72.3288 21.1815 70.4452 23.0188 70.4452 25.3415C70.4452 27.6641 72.3288 29.4668 74.3836 29.4668C75.3767 29.4668 76.1301 29.0161 76.5411 28.5308H76.6096V29.1201C76.6096 30.7148 75.7877 31.5468 74.4178 31.5468C73.3219 31.5468 72.637 30.7495 72.363 30.0561L70.7877 30.7148C71.2329 31.8241 72.4315 33.1761 74.4178 33.1761C76.5411 33.1761 78.3219 31.9281 78.3219 28.8428V21.4588H76.6096V22.1175ZM74.5548 27.8721C73.3219 27.8721 72.2603 26.8321 72.2603 25.3761C72.2603 23.9201 73.2877 22.8455 74.5548 22.8455C75.7877 22.8455 76.7466 23.9201 76.7466 25.3761C76.7466 26.7975 75.7877 27.8721 74.5548 27.8721ZM98.0137 17.0561H93.6986V29.2241H95.4795V24.6135H97.9795C99.9658 24.6135 101.918 23.1575 101.918 20.8348C101.918 18.5121 100.034 17.0561 98.0137 17.0561ZM98.0822 22.9148H95.5137V18.7548H98.0822C99.4178 18.7548 100.171 19.8641 100.171 20.8348C100.171 21.7708 99.4178 22.9148 98.0822 22.9148ZM109.178 21.1815C107.877 21.1815 106.541 21.7708 105.959 23.0535L107.569 23.7121C107.911 23.0535 108.527 22.8108 109.212 22.8108C110.137 22.8108 111.096 23.3655 111.096 24.3708V24.5095C110.788 24.3361 110.069 24.0241 109.212 24.0241C107.5 24.0241 105.753 24.9948 105.753 26.7628C105.753 28.3921 107.158 29.4321 108.733 29.4321C109.932 29.4321 110.616 28.8775 111.027 28.2535H111.096V29.1895H112.842V24.5441C112.842 22.3948 111.233 21.1815 109.178 21.1815ZM108.973 27.8721C108.39 27.8721 107.569 27.5601 107.569 26.8321C107.569 25.8961 108.596 25.5148 109.486 25.5148C110.274 25.5148 110.651 25.6881 111.13 25.9308C110.959 27.0748 110 27.8721 108.973 27.8721ZM119.144 21.4588L117.089 26.7281H117.021L114.897 21.4588H112.945L116.164 28.8428L114.349 32.9335H116.233L121.164 21.4588H119.144ZM102.979 29.2588H104.76V17.0561H102.979V29.2588Z" fill="white"/>
<path d="M10.0342 7.34912C9.76022 7.66112 9.58899 8.11179 9.58899 8.73579V30.2985C9.58899 30.8878 9.76022 31.3731 10.0342 31.6851L10.1027 31.7545L22.0205 19.6905V19.5518V19.4131L10.1027 7.27979L10.0342 7.34912Z" fill="url(#paint0_linear_1_472)"/>
<path d="M26.0273 23.6774L22.0547 19.6214V19.4828V19.3441L26.0273 15.3228L26.13 15.3574L30.8218 18.0961C32.1574 18.8588 32.1574 20.1414 30.8218 20.9041L26.0958 23.6081L26.0273 23.6774Z" fill="url(#paint1_linear_1_472)"/>
<path d="M26.1301 23.6078L22.0548 19.4824L10.0685 31.6157C10.5137 32.1011 11.2329 32.1358 12.0548 31.6851L26.1301 23.6078Z" fill="url(#paint2_linear_1_472)"/>
<path d="M26.1301 15.3919L12.0548 7.27991C11.2329 6.79458 10.5137 6.86391 10.0685 7.34925L22.0548 19.4826L26.1301 15.3919Z" fill="url(#paint3_linear_1_472)"/>
<path opacity="0.2" d="M26.0274 23.5386L12.0548 31.5466C11.2671 31.9972 10.5822 31.9626 10.137 31.5466L10.0685 31.6159L10.137 31.6852C10.5822 32.1012 11.3014 32.1359 12.0548 31.6852L26.1301 23.6079L26.0274 23.5386Z" fill="black"/>
<path opacity="0.12" d="M10.0342 31.5117C9.76022 31.1997 9.58899 30.749 9.58899 30.125V30.2637C9.58899 30.853 9.76022 31.3383 10.0342 31.6503L10.1027 31.581L10.0342 31.5117Z" fill="black"/>
<path opacity="0.12" d="M30.8219 20.7651L26.0273 23.5384L26.1301 23.6424L30.8219 20.9038C31.5068 20.5224 31.815 20.0024 31.815 19.4824C31.7808 19.9678 31.4383 20.4184 30.8219 20.7651Z" fill="black"/>
<path opacity="0.25" d="M12.0547 7.41841L30.8218 18.2344C31.4383 18.5811 31.7807 19.0317 31.815 19.4824C31.815 18.9624 31.4725 18.4771 30.8218 18.0611L12.0547 7.27974C10.7191 6.51707 9.6232 7.14108 9.6232 8.70108V8.83974C9.58895 7.31441 10.7191 6.65574 12.0547 7.41841Z" fill="white"/>
</g>
<defs>
<linearGradient id="paint0_linear_1_472" x1="20.9907" y1="8.48931" x2="4.634" y2="24.6478" gradientUnits="userSpaceOnUse">
<stop stop-color="#00A0FF"/>
<stop offset="0.00657445" stop-color="#00A1FF"/>
<stop offset="0.2601" stop-color="#00BEFF"/>
<stop offset="0.5122" stop-color="#00D2FF"/>
<stop offset="0.7604" stop-color="#00DFFF"/>
<stop offset="1" stop-color="#00E3FF"/>
</linearGradient>
<linearGradient id="paint1_linear_1_472" x1="32.5787" y1="19.4957" x2="9.27969" y2="19.4957" gradientUnits="userSpaceOnUse">
<stop stop-color="#FFE000"/>
<stop offset="0.4087" stop-color="#FFBD00"/>
<stop offset="0.7754" stop-color="#FFA500"/>
<stop offset="1" stop-color="#FF9C00"/>
</linearGradient>
<linearGradient id="paint2_linear_1_472" x1="23.9056" y1="21.732" x2="1.72466" y2="43.6442" gradientUnits="userSpaceOnUse">
<stop stop-color="#FF3A44"/>
<stop offset="1" stop-color="#C31162"/>
</linearGradient>
<linearGradient id="paint3_linear_1_472" x1="7.02646" y1="0.171758" x2="16.9312" y2="9.95645" gradientUnits="userSpaceOnUse">
<stop stop-color="#32A071"/>
<stop offset="0.0685" stop-color="#2DA771"/>
<stop offset="0.4762" stop-color="#15CF74"/>
<stop offset="0.8009" stop-color="#06E775"/>
<stop offset="1" stop-color="#00F076"/>
</linearGradient>
<clipPath id="clip0_1_472">
<rect width="130" height="39" fill="white"/>
</clipPath>
</defs>
</svg>
