<svg width="32" height="31" viewBox="0 0 32 31" fill="none" xmlns="http://www.w3.org/2000/svg">
<g clip-path="url(#clip0_1_430)">
<path d="M30.7857 0H1.30363C0.959816 0.00596804 0.631811 0.140568 0.388659 0.375466C0.145507 0.610363 0.00617775 0.927233 0 1.25937V29.6437C0 30.4188 0.601674 31 1.30363 31H30.6854C31.3874 31 31.989 30.4187 31.989 29.7406V1.25937C32.0893 0.58125 31.4876 0 30.7857 0ZM9.52652 26.4469H4.71311V11.625H9.52652V26.4469ZM7.11982 9.59062C5.61563 9.59062 4.312 8.42812 4.312 6.87812C4.312 5.425 5.51535 4.16562 7.11982 4.16562C8.624 4.16562 9.92763 5.32812 9.92763 6.87812C9.92763 8.42812 8.624 9.59062 7.11982 9.59062ZM27.3761 26.4469H22.663V19.2781C22.663 17.5344 22.663 15.4031 20.156 15.4031C17.6492 15.4031 17.3482 17.2437 17.3482 19.1812V26.5437H12.6352V11.625H17.0474V13.6594H17.1478C17.7494 12.4969 19.3539 11.2375 21.6603 11.2375C26.4737 11.2375 27.3761 14.3375 27.3761 18.3094V26.4469Z" fill="#00856F"/>
</g>
<defs>
<clipPath id="clip0_1_430">
<rect width="32" height="31" fill="white"/>
</clipPath>
</defs>
</svg>
