<svg width="32" height="31" viewBox="0 0 32 31" fill="none" xmlns="http://www.w3.org/2000/svg">
<g clip-path="url(#clip0_1_434)">
<path d="M16 2.79258C20.272 2.79258 20.7786 2.80808 22.4653 2.883C24.2867 2.96308 25.9761 3.317 27.276 4.57638C28.576 5.83575 28.9413 7.47229 29.024 9.23671C29.1013 10.8707 29.1173 11.3615 29.1173 15.5C29.1173 19.6385 29.1013 20.1293 29.024 21.7633C28.9413 23.5277 28.576 25.1642 27.276 26.4236C25.9761 27.683 24.2867 28.0369 22.4653 28.117C20.7786 28.1919 20.272 28.2074 16 28.2074C11.728 28.2074 11.2213 28.1919 9.53467 28.117C7.71466 28.0369 6.024 27.683 4.72399 26.4236C3.424 25.1642 3.05866 23.5277 2.976 21.7633C2.89866 20.1293 2.88266 19.6385 2.88266 15.5C2.88266 11.3615 2.89866 10.8707 2.976 9.23671C3.05866 7.47358 3.424 5.83575 4.72399 4.57638C6.024 3.317 7.71333 2.96308 9.53467 2.883C11.2213 2.80808 11.728 2.79258 16 2.79258ZM16 0C11.6547 0 11.1093 0.0167917 9.40266 0.093C6.80266 0.20925 4.51867 0.825375 2.68534 2.60142C0.852 4.37746 0.213334 6.5875 0.096 9.10883C0.0186666 10.7622 0 11.2917 0 15.5C0 19.7095 0.0173334 20.2378 0.096 21.8912C0.216 24.4099 0.852 26.6225 2.68534 28.3986C4.51867 30.1746 6.80133 30.792 9.40266 30.907C11.1093 30.9819 11.656 31 16 31C20.3453 31 20.8906 30.9819 22.5974 30.907C25.1973 30.7907 27.4813 30.1746 29.3147 28.3986C31.148 26.6225 31.7853 24.4099 31.904 21.8912C31.9813 20.2378 32 19.7083 32 15.5C32 11.2905 31.9813 10.7622 31.904 9.10883C31.7839 6.59008 31.148 4.37746 29.3147 2.60142C27.4813 0.825375 25.1973 0.206667 22.5974 0.093C20.8906 0.0180833 20.3439 0 16 0Z" fill="#00856F"/>
<path d="M16.0001 7.75C14.9074 7.75 13.8256 7.95045 12.8162 8.33993C11.8067 8.72941 10.8895 9.30027 10.1169 10.0199C9.34435 10.7396 8.7315 11.5939 8.31337 12.5342C7.89526 13.4745 7.68005 14.4823 7.68005 15.5C7.68005 16.5177 7.89526 17.5255 8.31337 18.4658C8.7315 19.4061 9.34435 20.2604 10.1169 20.98C10.8895 21.6997 11.8067 22.2705 12.8162 22.6601C13.8256 23.0495 14.9074 23.25 16.0001 23.25C18.2066 23.25 20.3229 22.4335 21.8832 20.98C23.4435 19.5266 24.3201 17.5554 24.3201 15.5C24.3201 13.4446 23.4435 11.4733 21.8832 10.0199C20.3229 8.56651 18.2066 7.75 16.0001 7.75ZM16.0001 20.5308C14.5676 20.5308 13.1939 20.0008 12.1811 19.0574C11.1682 18.1138 10.5992 16.8343 10.5992 15.5C10.5992 14.1657 11.1682 12.8861 12.1811 11.9427C13.1939 10.9992 14.5676 10.4692 16.0001 10.4692C17.4325 10.4692 18.8062 10.9992 19.8191 11.9427C20.8319 12.8861 21.4009 14.1657 21.4009 15.5C21.4009 16.8343 20.8319 18.1138 19.8191 19.0574C18.8062 20.0008 17.4325 20.5308 16.0001 20.5308Z" fill="#00856F"/>
<path d="M24.96 9.0415C26.0204 9.0415 26.88 8.17406 26.88 7.104C26.88 6.03395 26.0204 5.1665 24.96 5.1665C23.8997 5.1665 23.04 6.03395 23.04 7.104C23.04 8.17406 23.8997 9.0415 24.96 9.0415Z" fill="#00856F"/>
</g>
<defs>
<clipPath id="clip0_1_434">
<rect width="32" height="31" fill="white"/>
</clipPath>
</defs>
</svg>
