<svg width="32" height="24" viewBox="0 0 32 24" fill="none" xmlns="http://www.w3.org/2000/svg">
<g clip-path="url(#clip0_1_438)">
<path d="M32 2.86197C30.8033 3.32269 29.6081 3.69202 28.2113 3.78466C29.6081 3.046 30.6045 1.84664 31.1035 0.461977C29.8068 1.19937 28.4114 1.66134 26.916 1.93803C25.7193 0.738657 24.0223 0 22.2307 0C18.642 0 15.6512 2.67795 15.6512 6.09202C15.6512 6.554 15.7499 7.01471 15.8499 7.47541C10.3669 7.2 5.58304 4.8 2.29325 1.10799C1.69597 2.02709 1.38522 3.08137 1.39542 4.154C1.39542 6.27605 2.59071 8.12269 4.28631 9.23068C3.18972 9.23068 2.19319 8.95399 1.29535 8.49202V8.58466C1.29535 11.538 3.58861 13.9381 6.57957 14.4913C5.98056 14.584 5.48297 14.6766 4.88396 14.6766C4.48644 14.6766 4.08618 14.6766 3.6873 14.584C4.48507 16.9828 6.97709 18.7381 9.76929 18.8294C7.5761 20.492 4.68383 21.4147 1.59418 21.4147C1.09659 21.4147 0.49758 21.4147 0 21.3221C2.98959 22.9847 6.4795 24 10.1682 24C22.2307 24 28.8102 14.7681 28.8102 6.73929V5.99937C30.0056 5.07668 31.1022 4.06134 32 2.86197Z" fill="#00856F"/>
</g>
<defs>
<clipPath id="clip0_1_438">
<rect width="32" height="24" fill="white"/>
</clipPath>
</defs>
</svg>
